<?xml version="1.0" encoding="UTF-8"?> <svg xmlns="http://www.w3.org/2000/svg" xmlns:xlink="http://www.w3.org/1999/xlink" version="1.1" width="512px" height="107px" viewBox="0 0 512.0 107.0"><defs><clipPath id="i0"><path d="M411.871,0 L411.871,92.37 L0,92.37 L0,0 L411.871,0 Z"></path></clipPath><clipPath id="i1"><path d="M7.596,0 C11.792,0 15.192,3.401 15.192,7.596 C15.192,11.791 11.792,15.192 7.596,15.192 C3.401,15.192 0,11.791 0,7.596 C0,3.401 3.401,0 7.596,0 Z"></path></clipPath><clipPath id="i2"><path d="M65.634,0 C101.883,0 131.269,29.385 131.269,65.634 C131.269,75.157 129.239,84.204 125.591,92.37 L5.677,92.37 C2.029,84.204 0,75.157 0,65.634 C0,29.385 29.385,0 65.634,0 Z"></path></clipPath><clipPath id="i3"><path d="M12.003,0 L12.003,18.905 C13.769,17.396 15.559,16.167 17.384,15.231 C19.221,14.296 21.338,13.828 23.737,13.828 C28.217,13.828 31.68,15.571 34.113,19.069 C36.547,22.567 37.763,27.41 37.763,33.599 C37.763,39.717 36.207,44.665 33.095,48.444 C29.984,52.223 26.135,54.118 21.537,54.118 C19.619,54.118 17.946,53.896 16.53,53.463 C15.115,53.018 13.606,52.34 12.003,51.427 L11.488,53.346 L0,53.346 L0,0 L12.003,0 Z M18.343,23.163 C17.267,23.163 16.203,23.339 15.138,23.678 C14.074,24.017 13.032,24.532 12.003,25.222 L12.003,44.525 C12.798,44.841 13.606,45.063 14.425,45.168 C15.232,45.285 16.039,45.344 16.834,45.344 C19.747,45.344 21.912,44.385 23.339,42.466 C24.766,40.547 25.48,37.681 25.48,33.844 C25.48,30.007 24.895,27.269 23.737,25.632 C22.567,23.982 20.765,23.163 18.343,23.163 Z"></path></clipPath><clipPath id="i4"><path d="M12.003,0 L12.003,53.346 L0,53.346 L0,0 L12.003,0 Z"></path></clipPath><clipPath id="i5"><path d="M12.003,0 L12.003,19.069 C12.003,21.058 12.05,22.684 12.155,23.936 C12.26,25.188 12.506,26.252 12.904,27.118 C13.267,27.913 13.84,28.522 14.612,28.931 C15.372,29.341 16.448,29.551 17.829,29.551 C18.683,29.551 19.689,29.341 20.847,28.931 C22.017,28.522 23.093,27.96 24.076,27.258 L24.076,0 L36.079,0 L36.079,38.466 L24.076,38.466 L24.076,34.208 C21.994,35.951 20.087,37.261 18.344,38.162 C16.612,39.062 14.542,39.519 12.143,39.519 C8.318,39.519 5.346,38.314 3.206,35.904 C1.065,33.494 0,29.867 0,25.036 L0,0 L12.003,0 Z"></path></clipPath><clipPath id="i6"><path d="M120.22,0 L120.22,53.637 L0,53.637 L0,0 L120.22,0 Z"></path></clipPath><clipPath id="i7"><path d="M20.601,0 C26.509,0 30.954,1.591 33.926,4.773 C36.909,7.944 38.395,12.494 38.395,18.426 L38.395,22.742 L12.002,22.742 C12.119,24.532 12.494,26.018 13.137,27.223 C13.781,28.428 14.623,29.376 15.687,30.089 C16.717,30.791 17.922,31.306 19.291,31.61 C20.671,31.926 22.169,32.078 23.795,32.078 C25.198,32.078 26.567,31.926 27.924,31.61 C29.281,31.294 30.521,30.885 31.644,30.37 C32.627,29.926 33.54,29.458 34.37,28.943 C35.212,28.428 35.891,27.983 36.417,27.586 L37.693,27.586 L37.693,37.518 C36.71,37.904 35.809,38.267 35.002,38.594 C34.183,38.933 33.072,39.273 31.656,39.612 C30.346,39.951 29.001,40.22 27.62,40.419 C26.228,40.618 24.543,40.712 22.555,40.712 C15.278,40.712 9.698,38.98 5.814,35.506 C1.941,32.031 0,27.083 0,20.66 C0,14.378 1.813,9.371 5.428,5.615 C9.043,1.872 14.108,0 20.601,0 Z M19.689,7.651 C17.325,7.651 15.488,8.353 14.167,9.769 C12.845,11.173 12.108,13.091 11.967,15.513 L26.602,15.513 C26.532,12.951 25.935,10.997 24.824,9.663 C23.701,8.318 21.993,7.651 19.689,7.651 Z"></path></clipPath><clipPath id="i8"><path d="M23.76,0 C28.241,0 31.703,1.767 34.148,5.312 C36.605,8.856 37.834,13.665 37.834,19.771 C37.834,25.913 36.266,30.873 33.142,34.64 C30.007,38.407 26.147,40.291 21.561,40.291 C19.642,40.291 17.969,40.068 16.542,39.635 C15.126,39.203 13.606,38.536 12.003,37.623 L12.003,53.627 L0,53.627 L0,1.053 L12.003,1.053 L12.003,5.066 C13.769,3.568 15.571,2.34 17.408,1.404 C19.233,0.468 21.362,0 23.76,0 Z M18.379,9.336 C17.302,9.336 16.226,9.511 15.161,9.851 C14.085,10.19 13.032,10.705 12.003,11.395 L12.003,30.756 C12.646,31.037 13.348,31.236 14.12,31.341 C14.892,31.458 15.805,31.517 16.869,31.517 C19.806,31.517 21.993,30.557 23.409,28.65 C24.836,26.744 25.55,23.878 25.55,20.029 C25.55,16.285 24.965,13.559 23.807,11.874 C22.649,10.178 20.835,9.336 18.379,9.336 Z"></path></clipPath><clipPath id="i9"><path d="M16.566,0 L16.566,11.02 L28.147,11.02 L28.147,19.373 L16.566,19.373 L16.566,33.037 C16.566,34.394 16.577,35.576 16.6,36.582 C16.624,37.588 16.811,38.489 17.15,39.296 C17.466,40.092 18.04,40.735 18.847,41.203 C19.666,41.671 20.847,41.905 22.403,41.905 C23.046,41.905 23.889,41.764 24.93,41.484 C25.971,41.203 26.708,40.946 27.118,40.711 L28.147,40.711 L28.147,49.158 C26.849,49.509 25.456,49.778 23.994,49.965 C22.532,50.164 20.73,50.258 18.601,50.258 C13.711,50.258 10.143,49.252 7.909,47.239 C5.674,45.227 4.563,41.94 4.563,37.366 L4.563,19.373 L0,19.373 L0,11.02 L4.563,11.02 L4.563,0 L16.566,0 Z"></path></clipPath><clipPath id="i10"><path d="M12.003,0 L12.003,38.465 L0,38.465 L0,0 L12.003,0 Z"></path></clipPath><clipPath id="i11"><path d="M48.213,0 C50.072,0 51.724,0.281 53.194,0.855 C54.664,1.428 55.915,2.282 56.935,3.428 C58.053,4.656 58.879,6.119 59.438,7.827 C59.997,9.523 60.276,11.746 60.276,14.483 L60.276,39.518 L47.813,39.518 L47.813,20.309 C47.813,18.414 47.776,16.811 47.703,15.513 C47.63,14.214 47.424,13.15 47.06,12.331 C46.707,11.512 46.148,10.904 45.395,10.529 C44.642,10.155 43.598,9.967 42.237,9.967 C41.277,9.967 40.342,10.167 39.406,10.564 C38.483,10.962 37.463,11.535 36.37,12.261 L36.37,39.518 L23.906,39.518 L23.906,20.309 C23.906,18.437 23.87,16.846 23.785,15.536 C23.7,14.214 23.481,13.15 23.117,12.331 C22.765,11.512 22.206,10.904 21.453,10.529 C20.712,10.155 19.667,9.967 18.331,9.967 C17.298,9.967 16.302,10.202 15.331,10.658 C14.347,11.114 13.399,11.641 12.464,12.261 L12.464,39.518 L0,39.518 L0,1.053 L12.464,1.053 L12.464,5.312 C14.504,3.639 16.424,2.34 18.222,1.404 C20.031,0.468 22.06,0 24.307,0 C26.749,0 28.899,0.562 30.746,1.673 C32.604,2.796 34.013,4.469 34.985,6.68 C37.378,4.528 39.637,2.878 41.763,1.732 C43.877,0.574 46.039,0 48.213,0 Z"></path></clipPath><clipPath id="i12"><path d="M16.998,0 C23.62,0 28.44,1.1 31.47,3.311 C34.5,5.522 36.009,8.891 36.009,13.43 L36.009,39.658 L24.006,39.658 L24.006,35.576 C23.187,36.266 22.45,36.886 21.806,37.436 C21.151,37.974 20.286,38.524 19.186,39.073 C18.121,39.6 17.08,40.009 16.063,40.29 C15.056,40.571 13.641,40.711 11.816,40.711 C8.423,40.711 5.604,39.565 3.369,37.272 C1.123,34.979 0,32.101 0,28.615 C0,25.749 0.574,23.432 1.708,21.677 C2.843,19.911 4.481,18.507 6.622,17.478 C8.786,16.425 11.371,15.688 14.378,15.279 C17.384,14.869 20.613,14.553 24.076,14.319 L24.076,14.109 C24.076,11.991 23.292,10.517 21.736,9.71 C20.181,8.903 17.841,8.493 14.729,8.493 C13.313,8.493 11.664,8.751 9.78,9.265 C7.897,9.78 6.048,10.435 4.247,11.231 L3.229,11.231 L3.229,1.919 C4.422,1.579 6.329,1.17 8.985,0.702 C11.629,0.234 14.308,0 16.998,0 Z M24.006,21.549 C21.994,21.759 20.356,21.935 19.116,22.087 C17.864,22.227 16.647,22.52 15.442,22.964 C14.401,23.327 13.594,23.889 13.009,24.626 C12.436,25.374 12.143,26.369 12.143,27.609 C12.143,29.422 12.623,30.662 13.582,31.341 C14.554,32.019 15.969,32.358 17.852,32.358 C18.894,32.358 19.958,32.113 21.046,31.633 C22.134,31.153 23.117,30.475 24.006,29.609 L24.006,21.549 Z"></path></clipPath><clipPath id="i13"><path d="M19.899,0 C26.217,0 31.107,1.825 34.581,5.463 C38.056,9.102 39.799,14.097 39.799,20.438 C39.799,26.767 38.067,31.75 34.605,35.388 C31.13,39.027 26.24,40.852 19.899,40.852 C13.606,40.852 8.715,39.027 5.229,35.388 C1.743,31.75 0,26.767 0,20.438 C0,14.05 1.743,9.043 5.229,5.428 C8.715,1.813 13.606,0 19.899,0 Z M19.899,8.634 C18.823,8.634 17.841,8.797 16.975,9.125 C16.097,9.453 15.29,10.084 14.553,11.02 C13.875,11.909 13.313,13.126 12.904,14.67 C12.494,16.226 12.283,18.168 12.283,20.508 C12.283,22.859 12.482,24.755 12.869,26.193 C13.255,27.644 13.769,28.79 14.389,29.656 C15.033,30.545 15.828,31.189 16.799,31.598 C17.759,32.007 18.835,32.218 20.005,32.218 C20.964,32.218 21.947,32.007 22.953,31.598 C23.947,31.189 24.743,30.58 25.339,29.761 C26.053,28.779 26.591,27.609 26.966,26.229 C27.328,24.848 27.515,22.941 27.515,20.508 C27.515,18.238 27.328,16.343 26.942,14.834 C26.568,13.313 26.041,12.108 25.374,11.196 C24.673,10.236 23.865,9.57 22.964,9.195 C22.075,8.821 21.046,8.634 19.899,8.634 Z"></path></clipPath></defs><g clip-path="url(#i0)"><g transform="translate(396.679 34.358)"><g clip-path="url(#i1)"><polygon points="0,0 15.192,0 15.192,15.192 0,15.192 0,0" stroke="none" fill="#08052C"></polygon></g></g><g transform="translate(-0.060000000000002274 0.0)"><g clip-path="url(#i2)"><polygon points="0.06,0 131.269,0 131.269,92.37 0.06,92.37 0.06,0" stroke="none" fill="#08052C"></polygon></g></g></g><g transform="translate(155.067 39.16400000000003)"><g clip-path="url(#i3)"><polygon points="0,0 37.763,0 37.763,54.118 0,54.118 0,0" stroke="none" fill="#08052C"></polygon></g></g><g transform="translate(194.98 39.16399999999999)"><g clip-path="url(#i4)"><polygon points="0,0 12.003,0 12.003,53.346 0,53.346 0,0" stroke="none" fill="#08052C"></polygon></g></g><g transform="translate(209.749 54.04399999999998)"><g clip-path="url(#i5)"><polygon points="0,0 36.079,0 36.079,39.519 0,39.519 0,0" stroke="none" fill="#08052C"></polygon></g></g><g transform="translate(247.721 52.851)"><g clip-path="url(#i6)"><g clip-path="url(#i7)"><polygon points="0,0 38.395,0 38.395,40.712 0,40.712 0,0" stroke="none" fill="#08052C"></polygon></g><g transform="translate(82.38600000000002 0.07000000000000028)"><g clip-path="url(#i8)"><polygon points="0,0 37.834,0 37.834,53.567 0,53.567 0,0" stroke="none" fill="#08052C"></polygon></g></g></g></g><g transform="translate(367.4 42.95400000000001)"><g clip-path="url(#i9)"><polygon points="0,0 28.147,0 28.147,50.258 0,50.258 0,0" stroke="none" fill="#08052C"></polygon></g></g><g transform="translate(398.115 53.97399999999999)"><g clip-path="url(#i10)"><polygon points="0,0 12.003,0 12.003,38.465 0,38.465 0,0" stroke="none" fill="#08052C"></polygon></g></g><g transform="translate(412.809 52.92099999999999)"><g clip-path="url(#i11)"><polygon points="0,0 60.276,0 60.276,39.518 0,39.518 0,0" stroke="none" fill="#08052C"></polygon></g></g><g transform="translate(475.2679999999999 52.78100000000001)"><g clip-path="url(#i12)"><polygon points="0,0 36.009,0 36.009,40.711 0,40.711 0,0" stroke="none" fill="#08052C"></polygon></g></g><g transform="translate(288.487 52.781000000000006)"><g clip-path="url(#i13)"><polygon points="0,0 39.799,0 39.799,40.852 0,40.852 0,0" stroke="none" fill="#08052C"></polygon></g></g></svg> 